{
    "asset" : {
        "generator" : "Khronos glTF Blender I/O v1.8.19",
        "version" : "2.0"
    },
    "scene" : 0,
    "scenes" : [
        {
            "name" : "Scene",
            "nodes" : [
                0
            ]
        }
    ],
    "nodes" : [
        {
            "mesh" : 0,
            "name" : "Bee",
            "rotation" : [
                0,
                -0.6668259501457214,
                0,
                0.7452135682106018
            ],
            "scale" : [
                0.02500000037252903,
                0.02500000037252903,
                0.02500000037252903
            ],
            "translation" : [
                -0.22728925943374634,
                -0.20097818970680237,
                0.06798553466796875
            ]
        }
    ],
    "materials" : [
        {
            "doubleSided" : true,
            "name" : "Material.015",
            "pbrMetallicRoughness" : {
                "baseColorFactor" : [
                    0.800000011920929,
                    0.800000011920929,
                    0.800000011920929,
                    1
                ],
                "metallicFactor" : 0,
                "roughnessFactor" : 0.5
            }
        },
        {
            "doubleSided" : true,
            "name" : "Material.016",
            "pbrMetallicRoughness" : {
                "baseColorFactor" : [
                    0.800000011920929,
                    0.800000011920929,
                    0.800000011920929,
                    1
                ],
                "metallicFactor" : 0,
                "roughnessFactor" : 0.5
            }
        },
        {
            "doubleSided" : true,
            "name" : "Material.086",
            "pbrMetallicRoughness" : {
                "baseColorFactor" : [
                    0,
                    0,
                    0,
                    1
                ],
                "metallicFactor" : 0,
                "roughnessFactor" : 0.5
            }
        },
        {
            "doubleSided" : true,
            "name" : "Material.076",
            "pbrMetallicRoughness" : {
                "baseColorFactor" : [
                    1,
                    0.8534561395645142,
                    0,
                    1
                ],
                "metallicFactor" : 0,
                "roughnessFactor" : 0.5
            }
        }
    ],
    "meshes" : [
        {
            "name" : "Cylinder.007",
            "primitives" : [
                {
                    "attributes" : {
                        "POSITION" : 0,
                        "NORMAL" : 1,
                        "COLOR_0" : 2
                    },
                    "indices" : 3,
                    "material" : 0
                },
                {
                    "attributes" : {
                        "POSITION" : 4,
                        "NORMAL" : 5,
                        "COLOR_0" : 6
                    },
                    "indices" : 7,
                    "material" : 1
                },
                {
                    "attributes" : {
                        "POSITION" : 8,
                        "NORMAL" : 9,
                        "COLOR_0" : 10
                    },
                    "indices" : 11,
                    "material" : 2
                },
                {
                    "attributes" : {
                        "POSITION" : 12,
                        "NORMAL" : 13,
                        "COLOR_0" : 14
                    },
                    "indices" : 15,
                    "material" : 3
                }
            ]
        }
    ],
    "accessors" : [
        {
            "bufferView" : 0,
            "componentType" : 5126,
            "count" : 174,
            "max" : [
                0.5823709964752197,
                2.9243197441101074,
                1.7786153554916382
            ],
            "min" : [
                0.21722014248371124,
                1.1251020431518555,
                -1.3250499963760376
            ],
            "type" : "VEC3"
        },
        {
            "bufferView" : 1,
            "componentType" : 5126,
            "count" : 174,
            "type" : "VEC3"
        },
        {
            "bufferView" : 2,
            "componentType" : 5123,
            "count" : 174,
            "normalized" : true,
            "type" : "VEC4"
        },
        {
            "bufferView" : 3,
            "componentType" : 5123,
            "count" : 237,
            "type" : "SCALAR"
        },
        {
            "bufferView" : 4,
            "componentType" : 5126,
            "count" : 174,
            "max" : [
                -1.0096256732940674,
                2.9753971099853516,
                1.8900834321975708
            ],
            "min" : [
                -2.0318987369537354,
                1.1363831758499146,
                -1.0161837339401245
            ],
            "type" : "VEC3"
        },
        {
            "bufferView" : 5,
            "componentType" : 5126,
            "count" : 174,
            "type" : "VEC3"
        },
        {
            "bufferView" : 6,
            "componentType" : 5123,
            "count" : 174,
            "normalized" : true,
            "type" : "VEC4"
        },
        {
            "bufferView" : 7,
            "componentType" : 5123,
            "count" : 237,
            "type" : "SCALAR"
        },
        {
            "bufferView" : 8,
            "componentType" : 5126,
            "count" : 18133,
            "max" : [
                1.2376198768615723,
                2.6592886447906494,
                3.83540415763855
            ],
            "min" : [
                -1.4538053274154663,
                -0.9286465048789978,
                -1.6687953472137451
            ],
            "type" : "VEC3"
        },
        {
            "bufferView" : 9,
            "componentType" : 5126,
            "count" : 18133,
            "type" : "VEC3"
        },
        {
            "bufferView" : 10,
            "componentType" : 5123,
            "count" : 18133,
            "normalized" : true,
            "type" : "VEC4"
        },
        {
            "bufferView" : 11,
            "componentType" : 5123,
            "count" : 82809,
            "type" : "SCALAR"
        },
        {
            "bufferView" : 12,
            "componentType" : 5126,
            "count" : 2106,
            "max" : [
                0.48290103673934937,
                1.7335288524627686,
                3.6366069316864014
            ],
            "min" : [
                -1.1791049242019653,
                -0.08156557381153107,
                -1.6555993556976318
            ],
            "type" : "VEC3"
        },
        {
            "bufferView" : 13,
            "componentType" : 5126,
            "count" : 2106,
            "type" : "VEC3"
        },
        {
            "bufferView" : 14,
            "componentType" : 5123,
            "count" : 2106,
            "normalized" : true,
            "type" : "VEC4"
        },
        {
            "bufferView" : 15,
            "componentType" : 5123,
            "count" : 11187,
            "type" : "SCALAR"
        }
    ],
    "bufferViews" : [
        {
            "buffer" : 0,
            "byteLength" : 2088,
            "byteOffset" : 0
        },
        {
            "buffer" : 0,
            "byteLength" : 2088,
            "byteOffset" : 2088
        },
        {
            "buffer" : 0,
            "byteLength" : 1392,
            "byteOffset" : 4176
        },
        {
            "buffer" : 0,
            "byteLength" : 474,
            "byteOffset" : 5568
        },
        {
            "buffer" : 0,
            "byteLength" : 2088,
            "byteOffset" : 6044
        },
        {
            "buffer" : 0,
            "byteLength" : 2088,
            "byteOffset" : 8132
        },
        {
            "buffer" : 0,
            "byteLength" : 1392,
            "byteOffset" : 10220
        },
        {
            "buffer" : 0,
            "byteLength" : 474,
            "byteOffset" : 11612
        },
        {
            "buffer" : 0,
            "byteLength" : 217596,
            "byteOffset" : 12088
        },
        {
            "buffer" : 0,
            "byteLength" : 217596,
            "byteOffset" : 229684
        },
        {
            "buffer" : 0,
            "byteLength" : 145064,
            "byteOffset" : 447280
        },
        {
            "buffer" : 0,
            "byteLength" : 165618,
            "byteOffset" : 592344
        },
        {
            "buffer" : 0,
            "byteLength" : 25272,
            "byteOffset" : 757964
        },
        {
            "buffer" : 0,
            "byteLength" : 25272,
            "byteOffset" : 783236
        },
        {
            "buffer" : 0,
            "byteLength" : 16848,
            "byteOffset" : 808508
        },
        {
            "buffer" : 0,
            "byteLength" : 22374,
            "byteOffset" : 825356
        }
    ],
    "buffers" : [
        {
            "byteLength" : 847732,
            "uri" : "data:application/octet-stream;base64,"
        }
    ]
}
