{
    "asset" : {
        "generator" : "Khronos glTF Blender I/O v1.8.19",
        "version" : "2.0"
    },
    "scene" : 0,
    "scenes" : [
        {
            "name" : "Scene",
            "nodes" : [
                0
            ]
        }
    ],
    "nodes" : [
        {
            "mesh" : 0,
            "name" : "BRAIN",
            "scale" : [
                0.009999999776482582,
                0.009999999776482582,
                0.009999999776482582
            ]
        }
    ],
    "materials" : [
        {
            "name" : "Brain pink",
            "pbrMetallicRoughness" : {
                "baseColorFactor" : [
                    0.18431372940540314,
                    0.4000000059604645,
                    0.5647059082984924,
                    1
                ],
                "metallicFactor" : 0,
                "roughnessFactor" : 0.949999988079071
            }
        }
    ],
    "meshes" : [
        {
            "name" : "BRAIN-Mesh",
            "primitives" : [
                {
                    "attributes" : {
                        "POSITION" : 0,
                        "NORMAL" : 1,
                        "TEXCOORD_0" : 2
                    },
                    "indices" : 3,
                    "material" : 0
                }
            ]
        }
    ],
    "accessors" : [
        {
            "bufferView" : 0,
            "componentType" : 5126,
            "count" : 9210,
            "max" : [
                112.23895263671875,
                180.1543731689453,
                118.13262939453125
            ],
            "min" : [
                -101.68675994873047,
                9.9999998245167e-15,
                -53.811363220214844
            ],
            "type" : "VEC3"
        },
        {
            "bufferView" : 1,
            "componentType" : 5126,
            "count" : 9210,
            "type" : "VEC3"
        },
        {
            "bufferView" : 2,
            "componentType" : 5126,
            "count" : 9210,
            "type" : "VEC2"
        },
        {
            "bufferView" : 3,
            "componentType" : 5123,
            "count" : 9210,
            "type" : "SCALAR"
        }
    ],
    "bufferViews" : [
        {
            "buffer" : 0,
            "byteLength" : 110520,
            "byteOffset" : 0
        },
        {
            "buffer" : 0,
            "byteLength" : 110520,
            "byteOffset" : 110520
        },
        {
            "buffer" : 0,
            "byteLength" : 73680,
            "byteOffset" : 221040
        },
        {
            "buffer" : 0,
            "byteLength" : 18420,
            "byteOffset" : 294720
        }
    ],
    "buffers" : [
        {
            "byteLength" : 313140,
            "uri" : "data:application/octet-stream;base64,"
        }
    ]
}
