{
    "asset" : {
        "generator" : "Khronos glTF Blender I/O v1.8.19",
        "version" : "2.0"
    },
    "scene" : 0,
    "scenes" : [
        {
            "name" : "Scene",
            "nodes" : [
                0
            ]
        }
    ],
    "nodes" : [
        {
            "mesh" : 0,
            "name" : "Kidney"
        }
    ],
    "materials" : [
        {
            "name" : "Mat.001",
            "pbrMetallicRoughness" : {
                "baseColorTexture" : {
                    "index" : 0
                },
                "metallicFactor" : 0
            }
        }
    ],
    "meshes" : [
        {
            "name" : "Kidney_1.001",
            "primitives" : [
                {
                    "attributes" : {
                        "POSITION" : 0,
                        "NORMAL" : 1,
                        "TEXCOORD_0" : 2
                    },
                    "indices" : 3,
                    "material" : 0
                }
            ]
        }
    ],
    "textures" : [
        {
            "sampler" : 0,
            "source" : 0
        }
    ],
    "images" : [
        {
            "bufferView" : 4,
            "mimeType" : "image/png",
            "name" : "Image_0"
        }
    ],
    "accessors" : [
        {
            "bufferView" : 0,
            "componentType" : 5126,
            "count" : 2288,
            "max" : [
                35.09162902832031,
                51.91195297241211,
                9.145206451416016
            ],
            "min" : [
                -35.09162902832031,
                4.8000001697801054e-05,
                -9.145206451416016
            ],
            "type" : "VEC3"
        },
        {
            "bufferView" : 1,
            "componentType" : 5126,
            "count" : 2288,
            "type" : "VEC3"
        },
        {
            "bufferView" : 2,
            "componentType" : 5126,
            "count" : 2288,
            "type" : "VEC2"
        },
        {
            "bufferView" : 3,
            "componentType" : 5123,
            "count" : 2304,
            "type" : "SCALAR"
        }
    ],
    "bufferViews" : [
        {
            "buffer" : 0,
            "byteLength" : 27456,
            "byteOffset" : 0
        },
        {
            "buffer" : 0,
            "byteLength" : 27456,
            "byteOffset" : 27456
        },
        {
            "buffer" : 0,
            "byteLength" : 18304,
            "byteOffset" : 54912
        },
        {
            "buffer" : 0,
            "byteLength" : 4608,
            "byteOffset" : 73216
        },
        {
            "buffer" : 0,
            "byteLength" : 569,
            "byteOffset" : 77824
        }
    ],
    "samplers" : [
        {
            "magFilter" : 9729,
            "minFilter" : 9987
        }
    ],
    "buffers" : [
        {
            "byteLength" : 78396,
            "uri" : "data:application/octet-stream;base64,"
        }
    ]
}
