{
    "asset" : {
        "generator" : "Khronos glTF Blender I/O v1.8.19",
        "version" : "2.0"
    },
    "scene" : 0,
    "scenes" : [
        {
            "name" : "Scene",
            "nodes" : [
                0
            ]
        }
    ],
    "nodes" : [
        {
            "mesh" : 0,
            "name" : "Heart"
        }
    ],
    "materials" : [
        {
            "doubleSided" : true,
            "name" : "Heart_Material",
            "pbrMetallicRoughness" : {
                "baseColorFactor" : [
                    1,
                    1,
                    1,
                    0
                ],
                "metallicFactor" : 0,
                "roughnessFactor" : 0.690034806728363
            }
        }
    ],
    "meshes" : [
        {
            "name" : "Heart",
            "primitives" : [
                {
                    "attributes" : {
                        "POSITION" : 0,
                        "NORMAL" : 1,
                        "TEXCOORD_0" : 2
                    },
                    "indices" : 3,
                    "material" : 0
                }
            ]
        }
    ],
    "accessors" : [
        {
            "bufferView" : 0,
            "componentType" : 5126,
            "count" : 1579,
            "max" : [
                0.07395129650831223,
                0.10169480741024017,
                0.06468607485294342
            ],
            "min" : [
                -0.07395129650831223,
                -0.10112514346837997,
                -0.06692150980234146
            ],
            "type" : "VEC3"
        },
        {
            "bufferView" : 1,
            "componentType" : 5126,
            "count" : 1579,
            "type" : "VEC3"
        },
        {
            "bufferView" : 2,
            "componentType" : 5126,
            "count" : 1579,
            "type" : "VEC2"
        },
        {
            "bufferView" : 3,
            "componentType" : 5123,
            "count" : 9162,
            "type" : "SCALAR"
        }
    ],
    "bufferViews" : [
        {
            "buffer" : 0,
            "byteLength" : 18948,
            "byteOffset" : 0
        },
        {
            "buffer" : 0,
            "byteLength" : 18948,
            "byteOffset" : 18948
        },
        {
            "buffer" : 0,
            "byteLength" : 12632,
            "byteOffset" : 37896
        },
        {
            "buffer" : 0,
            "byteLength" : 18324,
            "byteOffset" : 50528
        }
    ],
    "buffers" : [
        {
            "byteLength" : 68852,
            "uri" : "data:application/octet-stream;base64,"
        }
    ]
}
